<svg width="69" height="32" viewBox="0 0 69 32" fill="none" xmlns="http://www.w3.org/2000/svg">
<g clip-path="url(#clip0_894_25083)">
<path d="M29.1041 27.7432H28.6098C24.0911 27.7432 20.4277 24.0592 20.4277 19.5152C20.4277 14.9711 24.0911 11.2872 28.6098 11.2872H29.1041C33.6228 11.2872 37.2862 14.9711 37.2862 19.5152C37.2862 24.0592 33.6228 27.7432 29.1041 27.7432ZM33.764 19.5152C33.764 16.8701 31.6312 14.7253 29.001 14.7253H28.7129C26.0827 14.7253 23.9499 16.8701 23.9499 19.5152C23.9499 22.1602 26.0827 24.305 28.7129 24.305H29.001C31.6312 24.305 33.764 22.1602 33.764 19.5152Z" fill="#F05B28"/>
<path d="M41.3055 27.5317H37.881V6.44946L41.3055 4.46826V27.5317Z" fill="#F05B28"/>
<path d="M17.4353 13.6968C15.9547 12.2079 13.9092 11.2872 11.6495 11.2872H11.2686L7.86789 14.7014V4.46826L4.44336 6.44946V21.7022C5.7954 23.0619 6.80546 24.0776 7.86789 25.1452C8.64785 25.9303 9.45638 26.7442 10.4506 27.7432H11.6495C16.1682 27.7432 19.8315 24.0592 19.8315 19.5152C19.8315 17.2427 18.9159 15.1857 17.4353 13.6968ZM11.5463 24.305H7.86789V14.7253H11.5463C14.1766 14.7253 16.3094 16.8701 16.3094 19.5152C16.3094 22.1602 14.1766 24.305 11.5463 24.305Z" fill="#F05B28"/>
<path d="M42.3027 9.13209V22.7835C42.3027 25.4501 44.6474 27.5318 47.2324 27.5318H50.9164V24.1926H47.4403C46.5715 24.1926 45.6241 22.9989 45.6241 22.1579V14.8004H50.9156V11.5649H45.6241V7.20435L42.3035 9.13129L42.3027 9.13209Z" fill="#F05B28"/>
<path d="M59.9848 19.5311L55.3511 27.5317H51.5116L56.3905 19.4003L51.7187 11.5616H55.4035L58.6217 17.1613L58.6225 17.1605L59.9848 19.5311Z" fill="black"/>
<path d="M64.5568 11.5616H61.0188L58.5527 15.8384L60.3285 18.9135L64.5568 11.5616Z" fill="#F05B28"/>
<path d="M64.5869 27.5317H60.9815L58.5527 23.255L60.3309 20.1296L64.5869 27.5317Z" fill="#F05B28"/>
</g>
<defs>
<clipPath id="clip0_894_25083">
<rect width="69" height="32" fill="white"/>
</clipPath>
</defs>
</svg>
